HIERARCHY
ROOT Hips
{
    OFFSET   0.000000   0.000000   0.000000
    CHANNELS 6 Xposition Yposition Zposition Zrotation Xrotation Yrotation
    JOINT Chest
    {
        OFFSET   0.000000   8.007230   0.000000
        CHANNELS 3 Zrotation Xrotation Yrotation
        JOINT Chest2
        {
            OFFSET   0.000000  22.077100   0.000000
            CHANNELS 3 Zrotation Xrotation Yrotation
            JOINT Neck
            {
                OFFSET   0.000000  23.254800  -0.000021
                CHANNELS 3 Zrotation Xrotation Yrotation
                JOINT Head
                {
                    OFFSET   0.000000  14.370000   1.956610
                    CHANNELS 3 Zrotation Xrotation Yrotation
                    End Site
                    {
                        OFFSET   0.000000  19.566000   0.000000
                    }
                }
            }
            JOINT LeftCollar
            {
                OFFSET   3.911900  19.017000  -0.467063
                CHANNELS 3 Zrotation Xrotation Yrotation
                JOINT LeftShoulder
                {
                    OFFSET  10.383700   0.000000   0.000000
                    CHANNELS 3 Zrotation Xrotation Yrotation
                    JOINT LeftElbow
                    {
                        OFFSET  26.662100   0.001529   0.000325
                        CHANNELS 3 Zrotation Xrotation Yrotation
                        JOINT LeftWrist
                        {
                            OFFSET  28.869000  -0.000011  -0.000096
                            CHANNELS 3 Zrotation Xrotation Yrotation
                            JOINT LeftFinger0
                            {
                                OFFSET   2.044650  -2.323460   3.252850
                                CHANNELS 3 Zrotation Xrotation Yrotation
                                JOINT LeftFinger01
                                {
                                    OFFSET   3.088130   0.000000   0.000000
                                    CHANNELS 3 Zrotation Xrotation Yrotation
                                    JOINT LeftFinger02
                                    {
                                        OFFSET   2.639460   0.000000   0.000000
                                        CHANNELS 3 Zrotation Xrotation Yrotation
                                        End Site
                                        {
                                            OFFSET   2.582190   0.000000   0.000000
                                        }
                                    }
                                }
                            }
                            JOINT LeftFinger1
                            {
                                OFFSET   8.364480   0.000000   3.252850
                                CHANNELS 3 Zrotation Xrotation Yrotation
                                JOINT LeftFinger11
                                {
                                    OFFSET   4.646930   0.000000   0.000000
                                    CHANNELS 3 Zrotation Xrotation Yrotation
                                    JOINT LeftFinger12
                                    {
                                        OFFSET   2.323460   0.000000   0.000000
                                        CHANNELS 3 Zrotation Xrotation Yrotation
                                        End Site
                                        {
                                            OFFSET   2.273050   0.000000   0.000000
                                        }
                                    }
                                }
                            }
                            JOINT LeftFinger2
                            {
                                OFFSET   8.364480   0.000016   1.078090
                                CHANNELS 3 Zrotation Xrotation Yrotation
                                JOINT LeftFinger21
                                {
                                    OFFSET   5.111620   0.000000   0.000000
                                    CHANNELS 3 Zrotation Xrotation Yrotation
                                    JOINT LeftFinger22
                                    {
                                        OFFSET   2.788160   0.000017   0.000000
                                        CHANNELS 3 Zrotation Xrotation Yrotation
                                        End Site
                                        {
                                            OFFSET   2.727660   0.000000   0.000000
                                        }
                                    }
                                }
                            }
                            JOINT LeftFinger3
                            {
                                OFFSET   7.899780   0.000015  -1.078090
                                CHANNELS 3 Zrotation Xrotation Yrotation
                                JOINT LeftFinger31
                                {
                                    OFFSET   4.646920   0.000000   0.000000
                                    CHANNELS 3 Zrotation Xrotation Yrotation
                                    JOINT LeftFinger32
                                    {
                                        OFFSET   2.323470   0.000000   0.000000
                                        CHANNELS 3 Zrotation Xrotation Yrotation
                                        End Site
                                        {
                                            OFFSET   2.273050   0.000000   0.000000
                                        }
                                    }
                                }
                            }
                            JOINT LeftFinger4
                            {
                                OFFSET   7.435090   0.000000  -3.252850
                                CHANNELS 3 Zrotation Xrotation Yrotation
                                JOINT LeftFinger41
                                {
                                    OFFSET   3.717550   0.000000   0.000000
                                    CHANNELS 3 Zrotation Xrotation Yrotation
                                    JOINT LeftFinger42
                                    {
                                        OFFSET   1.858760   0.000000   0.000000
                                        CHANNELS 3 Zrotation Xrotation Yrotation
                                        End Site
                                        {
                                            OFFSET   1.818440   0.000000   0.000000
                                        }
                                    }
                                }
                            }
                        }
                    }
                }
            }
            JOINT RightCollar
            {
                OFFSET  -3.911900  19.017000  -0.467062
                CHANNELS 3 Zrotation Xrotation Yrotation
                JOINT RightShoulder
                {
                    OFFSET -10.383700   0.000015   0.000000
                    CHANNELS 3 Zrotation Xrotation Yrotation
                    JOINT RightElbow
                    {
                        OFFSET -26.662100   0.001341   0.000385
                        CHANNELS 3 Zrotation Xrotation Yrotation
                        JOINT RightWrist
                        {
                            OFFSET -28.869000   0.000025  -0.000080
                            CHANNELS 3 Zrotation Xrotation Yrotation
                            JOINT RightFinger0
                            {
                                OFFSET  -2.044650  -2.323490   3.252850
                                CHANNELS 3 Zrotation Xrotation Yrotation
                                JOINT RightFinger01
                                {
                                    OFFSET  -3.088130   0.000000   0.000000
                                    CHANNELS 3 Zrotation Xrotation Yrotation
                                    JOINT RightFinger02
                                    {
                                        OFFSET  -2.639460   0.000000   0.000000
                                        CHANNELS 3 Zrotation Xrotation Yrotation
                                        End Site
                                        {
                                            OFFSET  -2.582190   0.000000   0.000000
                                        }
                                    }
                                }
                            }
                            JOINT RightFinger1
                            {
                                OFFSET  -8.364480   0.000000   3.252850
                                CHANNELS 3 Zrotation Xrotation Yrotation
                                JOINT RightFinger11
                                {
                                    OFFSET  -4.646930   0.000000   0.000000
                                    CHANNELS 3 Zrotation Xrotation Yrotation
                                    JOINT RightFinger12
                                    {
                                        OFFSET  -2.323470   0.000000   0.000000
                                        CHANNELS 3 Zrotation Xrotation Yrotation
                                        End Site
                                        {
                                            OFFSET  -2.273050   0.000000   0.000000
                                        }
                                    }
                                }
                            }
                            JOINT RightFinger2
                            {
                                OFFSET  -8.364480   0.000000   1.078090
                                CHANNELS 3 Zrotation Xrotation Yrotation
                                JOINT RightFinger21
                                {
                                    OFFSET  -5.111610   0.000000   0.000000
                                    CHANNELS 3 Zrotation Xrotation Yrotation
                                    JOINT RightFinger22
                                    {
                                        OFFSET  -2.788160   0.000000   0.000000
                                        CHANNELS 3 Zrotation Xrotation Yrotation
                                        End Site
                                        {
                                            OFFSET  -2.727660   0.000000   0.000000
                                        }
                                    }
                                }
                            }
                            JOINT RightFinger3
                            {
                                OFFSET  -7.899780   0.000000  -1.078090
                                CHANNELS 3 Zrotation Xrotation Yrotation
                                JOINT RightFinger31
                                {
                                    OFFSET  -4.646920   0.000000   0.000000
                                    CHANNELS 3 Zrotation Xrotation Yrotation
                                    JOINT RightFinger32
                                    {
                                        OFFSET  -2.323470   0.000000   0.000000
                                        CHANNELS 3 Zrotation Xrotation Yrotation
                                        End Site
                                        {
                                            OFFSET  -2.273050   0.000000   0.000000
                                        }
                                    }
                                }
                            }
                            JOINT RightFinger4
                            {
                                OFFSET  -7.435090   0.000000  -3.252850
                                CHANNELS 3 Zrotation Xrotation Yrotation
                                JOINT RightFinger41
                                {
                                    OFFSET  -3.717550   0.000000   0.000000
                                    CHANNELS 3 Zrotation Xrotation Yrotation
                                    JOINT RightFinger42
                                    {
                                        OFFSET  -1.858770   0.000000   0.000000
                                        CHANNELS 3 Zrotation Xrotation Yrotation
                                        End Site
                                        {
                                            OFFSET  -1.818440   0.000000   0.000000
                                        }
                                    }
                                }
                            }
                        }
                    }
                }
            }
        }
    }
    JOINT LeftHip
    {
        OFFSET   9.783010   0.000000   0.000000
        CHANNELS 3 Zrotation Xrotation Yrotation
        JOINT LeftKnee
        {
            OFFSET   0.000070 -41.789100   0.000028
            CHANNELS 3 Zrotation Xrotation Yrotation
            JOINT LeftAnkle
            {
                OFFSET   0.000087 -41.133200  -0.000100
                CHANNELS 3 Zrotation Xrotation Yrotation
                JOINT LeftToe
                {
                    OFFSET   0.000000  -6.358960  14.674500
                    CHANNELS 3 Zrotation Xrotation Yrotation
                    End Site
                    {
                        OFFSET   0.000000   0.000000   3.913200
                    }
                }
            }
        }
    }
    JOINT RightHip
    {
        OFFSET  -9.783020   0.000000   0.000000
        CHANNELS 3 Zrotation Xrotation Yrotation
        JOINT RightKnee
        {
            OFFSET   0.000044 -41.789100  -0.000870
            CHANNELS 3 Zrotation Xrotation Yrotation
            JOINT RightAnkle
            {
                OFFSET  -0.000090 -41.133200  -0.000245
                CHANNELS 3 Zrotation Xrotation Yrotation
                JOINT RightToe
                {
                    OFFSET   0.000000  -6.358960  14.674500
                    CHANNELS 3 Zrotation Xrotation Yrotation
                    End Site
                    {
                        OFFSET   0.000000   0.000000   3.913200
                    }
                }
            }
        }
    }
}
MOTION
Frames: 4
Frame Time:   0.016667
  0.877665  90.133200  -0.140357  -1.287520  -3.193860  -2.555950  -0.535187   3.432210   0.123953  -1.080740   6.863090   0.280842   3.041310  -1.740180   0.091067   5.009350  -3.499210   2.723640  -5.657270  -2.705840   6.047370 -71.299400  20.923300  -1.990050  -2.879810  -4.536730 -15.627000  14.608900   3.315160   8.631720  38.103700  27.153300 -65.353100 -25.560400  -0.003373   0.007577  -7.780170  -0.004361   0.003315 -30.101900   8.075110 -13.613100 -25.419200  -0.009986  -0.001603 -17.778600  -0.003433   0.003772 -28.650500   1.667660  -3.048340 -39.058100  -0.000482  -0.003343 -26.012700  -0.009732  -0.003730 -27.744900   1.619020  -3.074440 -30.721500  -0.008218  -0.007739 -20.460500  -0.001590  -0.007145 -29.114500   0.561392  -1.007610 -43.689800  -0.009805  -0.008248 -29.090100   0.005191  -0.005885  12.339700   2.391680   6.280450  68.026400  14.227600   3.285260   1.346710  -5.736470  14.743700 -16.121700 -17.591700   3.149520 -38.966000  32.757800  70.022600  28.548000   0.001129  -0.004471   9.276780   0.000927  -0.002252  27.014000   0.799275   1.576530  22.111400  -0.000275   0.005522  15.478000   0.001037   0.004041  26.755100  -1.387990  -2.747390  26.788500   0.004033   0.001398  17.844400   0.007054   0.000320  27.722200  -2.561580  -4.871050  30.991000   0.003856  -0.002809  20.640000  -0.001028  -0.004672  34.914500  -3.211140  -4.588350  52.589300  -0.000494  -0.003058  35.008100  -0.001428  -0.001470   0.870609   3.678400   1.789810   0.560768   1.148590  11.719200  -5.246620  -3.345360   5.846000   0.000000   0.000000  -0.000000   2.747620   1.006250  -2.271250  -1.461050   5.545040  -8.587300 -10.096600   0.675853   1.101820  -0.000000   0.000000   0.000000
  0.881629  90.133200  -0.124508  -1.289020  -3.194270  -2.582520  -0.537837   3.422600   0.121390  -1.085860   6.843890   0.275816   3.032870  -1.724080   0.090459   4.995150  -3.466930   2.735100  -5.665000  -2.695020   6.042900 -71.309000  20.913200  -1.973230  -2.893090  -4.534950 -15.628000  14.587700   3.345070   8.619120  38.109500  27.154800 -65.354800 -25.541500  -0.003362   0.007569  -7.770740  -0.004360   0.003314 -30.095700   8.074580 -13.627000 -25.414400  -0.009987  -0.001592 -17.778600  -0.003426   0.003784 -28.650200   1.670560  -3.053760 -39.045600  -0.000468  -0.003339 -26.004300  -0.009736  -0.003731 -27.744600   1.621810  -3.079910 -30.714700  -0.008205  -0.007733 -20.456000  -0.001590  -0.007133 -29.120000   0.568724  -1.020690 -43.692900  -0.009806  -0.008240 -29.095800   0.005187  -0.005881  12.338300   2.407690   6.269610  68.028100  14.239400   3.301550   1.348170  -5.747230  14.740700 -16.124400 -17.579000   3.143570 -38.968300  32.761900  70.025200  28.549000   0.001122  -0.004460   9.276780   0.000915  -0.002251  27.006800   0.799277   1.574380  22.105400  -0.000281   0.005531  15.473800   0.001030   0.004048  26.751200  -1.387390  -2.750070  26.784500   0.004027   0.001414  17.840300   0.007047   0.000328  27.722200  -2.561110  -4.868150  30.985700   0.003850  -0.002800  20.636500  -0.001024  -0.004661  34.914400  -3.210830  -4.587930  52.584600  -0.000486  -0.003042  35.007900  -0.001421  -0.001463   0.869993   3.712790   1.798590   0.560828   1.125930  11.729100  -5.244570  -3.356390   5.853880  -0.000000   0.000000   0.000000   2.745900   1.030760  -2.272030  -1.457380   5.516690  -8.592480 -10.097000   0.673728   1.135730   0.000000   0.000000   0.000000
  0.888994  90.133100  -0.099552  -1.291610  -3.197470  -2.626330  -0.542595   3.409110   0.118826  -1.095200   6.816920   0.270787   3.018520  -1.696240   0.089421   4.971030  -3.411050   2.752050  -5.677000  -2.682620   6.035130 -71.328000  20.896800  -1.947020  -2.909610  -4.522550 -15.631100  14.555100   3.375040   8.599710  38.126700  27.156400 -65.356600 -25.513600  -0.003337   0.007561  -7.756820  -0.004350   0.003312 -30.086600   8.074040 -13.640900 -25.406900  -0.009989  -0.001562 -17.778500  -0.003413   0.003813 -28.649900   1.673470  -3.059170 -39.033100  -0.000432  -0.003329 -25.996000  -0.009743  -0.003733 -27.744400   1.624600  -3.085380 -30.707900  -0.008175  -0.007712 -20.451500  -0.001588  -0.007106 -29.125600   0.576056  -1.033780 -43.696100  -0.009812  -0.008218 -29.101600   0.005178  -0.005866  12.337100   2.423730   6.254340  68.033200  14.259900   3.317960   1.346880  -5.762940  14.733800 -16.129200 -17.558900   3.132250 -38.972200  32.771300  70.030200  28.553500   0.001100  -0.004435   9.276790   0.000889  -0.002247  26.996800   0.799281   1.568430  22.097200  -0.000296   0.005559  15.468100   0.001016   0.004069  26.745200  -1.386780  -2.756050  26.778500   0.004010   0.001450  17.834500   0.007030   0.000347  27.722200  -2.560640  -4.865240  30.976600   0.003829  -0.002777  20.630400  -0.001013  -0.004635  34.914200  -3.210510  -4.587510  52.577300  -0.000470  -0.003000  35.007800  -0.001401  -0.001444   0.868585   3.761630   1.812340   0.558872   1.103240  11.745700  -5.241330  -3.375870   5.867300   0.000000   0.000000  -0.000000   2.740640   1.067370  -2.275090  -1.448910   5.484770  -8.597600 -10.097900   0.668059   1.188820   0.000000   0.000000  -0.000000
  0.896695  90.133000  -0.082437  -1.294220  -3.203930  -2.661380  -0.547406   3.403210   0.119033  -1.104840   6.805100   0.271256   3.007620  -1.669610   0.088526   4.952780  -3.357510   2.762580  -5.685200  -2.680780   6.028820 -71.350800  20.882200  -1.926230  -2.907000  -4.479400 -15.635400  14.534900   3.359340   8.588420  38.133600  27.123600 -65.312000 -25.501300  -0.003300   0.007563  -7.750650  -0.004323   0.003317 -30.080500   8.074200 -13.636900 -25.400900  -0.009981  -0.001514 -17.778700  -0.003405   0.003849 -28.650700   1.667120  -3.047580 -39.035700  -0.000377  -0.003316 -25.997800  -0.009751  -0.003728 -27.745100   1.618460  -3.073680 -30.716000  -0.008134  -0.007671 -20.456900  -0.001587  -0.007070 -29.125500   0.568983  -1.021070 -43.695600  -0.009825  -0.008182 -29.101300   0.005164  -0.005840  12.337600   2.420420   6.247500  68.042200  14.274200   3.316570   1.333790  -5.767370  14.726600 -16.133500 -17.541700   3.121230 -38.979300  32.787700  70.038100  28.559300   0.001059  -0.004403   9.278780   0.000859  -0.002236  26.992900   0.796031   1.560470  22.094100  -0.000322   0.005607  15.465900   0.001000   0.004105  26.741300  -1.389990  -2.761800  26.774700   0.003983   0.001499  17.831700   0.007006   0.000379  27.721800  -2.563540  -4.868390  30.966600   0.003790  -0.002741  20.623800  -0.000998  -0.004594  34.914500  -3.211730  -4.589390  52.571800  -0.000451  -0.002937  35.008200  -0.001365  -0.001419   0.864959   3.776630   1.821990   0.553903   1.115270  11.758300  -5.239000  -3.394110   5.879390   0.000000   0.000000   0.000000   2.727940   1.085180  -2.283450  -1.436000   5.480690  -8.592880 -10.099600   0.658628   1.225760  -0.000000   0.000000   0.000000
